<svg viewBox="0 0 48 48" fill="none" xmlns="http://www.w3.org/2000/svg"><defs><linearGradient id="bm-p0" x1="0" y1="0" x2="48" y2="48" gradientUnits="userSpaceOnUse"><stop stop-color="#2f6bff"/><stop offset="1" stop-color="#221a5e"/></linearGradient></defs><rect width="48" height="48" rx="13" fill="url(#bm-p0)"/><g stroke="#8fb4ff" stroke-width="1.1" stroke-linecap="round" opacity=".85"><line x1="15.5" y1="18" x2="9.2" y2="14.5"/><line x1="32.5" y1="18" x2="38.8" y2="14.5"/><line x1="24" y1="35" x2="24" y2="40"/></g><g transform="translate(6,5) scale(1.5)" stroke="#fff" stroke-width="1.5" fill="none" stroke-linejoin="round" stroke-linecap="round"><path d="M9 4a3 3 0 0 0-3 3 3 3 0 0 0-1.5 5.6A3 3 0 0 0 6 18a3 3 0 0 0 3 2V4Z"/><path d="M15 4a3 3 0 0 1 3 3 3 3 0 0 1 1.5 5.6A3 3 0 0 1 18 18a3 3 0 0 1-3 2V4Z"/><path d="M12 6.5v13" opacity=".55"/></g><g fill="#fff"><circle cx="18.6" cy="19" r="1.5"/><circle cx="29.4" cy="19" r="1.5"/><circle cx="24" cy="28" r="1.5"/></g><g fill="#cfe0ff"><circle cx="9.2" cy="14.5" r="1.5"/><circle cx="38.8" cy="14.5" r="1.5"/><circle cx="24" cy="40" r="1.5"/></g></svg>